<?xml version="1.0" standalone="no"?>
<!DOCTYPE svg PUBLIC "-//W3C//DTD SVG 20010904//EN"
 "http://www.w3.org/TR/2001/REC-SVG-20010904/DTD/svg10.dtd">
<svg version="1.0" xmlns="http://www.w3.org/2000/svg"
 width="1302.000000pt" height="1302.000000pt" viewBox="0 0 1302.000000 1302.000000"
 preserveAspectRatio="xMidYMid meet">
<metadata>
Created by potrace 1.11, written by Peter Selinger 2001-2013
</metadata>
<g transform="translate(0.000000,1302.000000) scale(0.100000,-0.100000)"
fill="#000000" stroke="none">
<path d="M5243 12330 c-578 -48 -935 -364 -1050 -930 -15 -78 -17 -233 -20
-1942 l-4 -1858 -967 0 c-1025 0 -1249 7 -1414 40 -212 44 -386 129 -507 250
-114 114 -168 217 -214 415 -21 89 -21 101 -27 1998 l-5 1908 -42 -31 c-24
-18 -43 -29 -43 -26 0 2 20 19 45 37 25 18 45 36 45 41 0 4 -220 8 -490 8
l-490 0 0 -519 0 -519 121 -168 c67 -93 126 -175 131 -181 6 -7 8 -13 5 -13
-3 0 -61 75 -129 167 l-123 167 -3 -124 c-1 -69 -1 -721 1 -1450 4 -1431 1
-1365 57 -1625 157 -724 673 -1184 1475 -1314 245 -40 375 -42 2000 -39 l1560
3 5 2280 5 2280 27 50 c53 100 135 148 254 148 122 0 217 -63 280 -185 13 -26
343 -888 734 -1915 408 -1073 736 -1921 771 -1993 82 -169 174 -304 293 -428
153 -159 291 -239 501 -292 266 -68 620 -63 885 10 96 27 245 98 324 154 74
53 189 172 243 252 84 124 140 260 185 454 l23 95 2 1800 c3 1985 -1 1859 66
1947 18 24 56 56 87 72 47 25 65 30 130 30 121 -1 214 -55 277 -163 22 -36
427 -1116 654 -1741 33 -91 116 -316 183 -500 68 -184 129 -353 136 -375 7
-22 16 -44 20 -50 4 -5 60 -154 125 -330 303 -827 527 -1429 586 -1577 l11
-28 525 0 c495 0 525 1 521 18 -3 9 -202 546 -443 1192 -241 646 -455 1222
-476 1280 -20 58 -199 542 -398 1075 -199 534 -387 1038 -418 1120 -165 444
-403 759 -678 897 -350 176 -960 176 -1310 0 -247 -124 -437 -360 -520 -648
-62 -215 -59 -98 -65 -2069 l-5 -1800 -27 -51 c-56 -107 -161 -162 -285 -151
-81 8 -140 34 -192 86 -54 54 -73 93 -184 386 -52 138 -350 921 -662 1740
-312 820 -592 1558 -622 1640 -83 224 -179 408 -290 555 -54 71 -182 198 -248
245 -221 157 -555 226 -942 195z m-4303 -184 c0 -3 -15 -14 -32 -26 l-33 -22
30 26 c31 27 35 29 35 22z m-70 -50 c0 -2 -8 -10 -17 -17 -16 -13 -17 -12 -4
4 13 16 21 21 21 13z m-70 -50 c0 -2 -8 -10 -17 -17 -16 -13 -17 -12 -4 4 13
16 21 21 21 13z m-40 -30 c0 -2 -8 -10 -17 -17 -16 -13 -17 -12 -4 4 13 16 21
21 21 13z m-419 -1203 c13 -16 12 -17 -3 -4 -17 13 -22 21 -14 21 2 0 10 -8
17 -17z m11569 -1745 c0 -14 -89 -81 -319 -241 -117 -82 -157 -104 -159 -92
-2 9 1 21 6 28 20 23 249 190 347 253 102 64 125 74 125 52z"/>
<path d="M940 5769 c-387 -41 -669 -230 -811 -544 -37 -83 -76 -215 -95 -330
-21 -122 -29 -434 -15 -565 11 -109 47 -298 61 -319 5 -9 29 -2 88 28 45 23
85 41 89 40 5 0 -32 -20 -80 -45 -103 -52 -101 -46 -42 -171 131 -280 373
-456 710 -518 180 -33 842 -30 853 4 2 5 11 7 22 4 25 -7 110 22 195 66 95 49
199 153 248 248 127 244 122 629 -10 852 -45 75 -134 161 -205 197 -114 58
-167 64 -565 64 l-363 0 0 -185 0 -185 303 0 c235 0 315 -3 351 -14 123 -37
179 -119 184 -273 6 -146 -34 -251 -118 -312 -70 -50 -115 -56 -445 -56 -250
0 -314 3 -385 18 -99 21 -208 71 -267 121 -56 49 -117 142 -143 221 -13 40
-26 63 -32 59 -7 -4 -8 -2 -4 5 4 6 0 55 -10 109 -33 193 -18 510 32 667 63
195 192 317 395 372 59 16 178 18 1663 20 1408 3 1606 2 1658 -12 65 -16 109
-43 148 -88 l26 -29 197 102 197 102 -22 39 c-54 96 -184 201 -315 254 -158
63 -42 59 -1803 61 -893 1 -1643 -2 -1690 -7z m-580 -1649 c-41 -21 -79 -39
-85 -39 -5 0 24 18 65 39 41 21 80 39 85 39 6 0 -24 -18 -65 -39z"/>
<path d="M6152 5770 c-469 -49 -765 -284 -887 -705 -48 -168 -59 -260 -59
-520 0 -256 11 -352 59 -520 110 -379 370 -606 781 -681 145 -27 713 -27 858
0 591 108 869 530 843 1281 -9 256 -48 443 -127 613 -131 278 -374 456 -710
517 -109 20 -615 30 -758 15z m731 -448 c232 -64 361 -214 411 -482 36 -189
30 -474 -14 -645 -58 -228 -194 -366 -415 -422 -60 -15 -116 -18 -395 -17
-302 0 -330 1 -402 21 -261 73 -382 229 -428 548 -24 170 -7 474 36 615 42
144 136 267 249 327 135 71 219 82 585 79 265 -3 303 -5 373 -24z"/>
<path d="M8243 4848 c3 -926 3 -934 25 -1016 47 -179 130 -300 262 -386 61
-40 76 -44 84 -18 3 10 4 7 3 -8 -2 -20 5 -27 44 -41 121 -46 179 -51 563 -56
487 -6 593 6 765 89 117 56 213 152 269 269 79 166 76 127 82 939 l5 725 975
0 975 0 52 -24 c126 -57 197 -206 172 -362 -13 -81 -48 -148 -104 -197 -86
-75 -74 -74 -675 -78 -342 -3 -553 -8 -585 -16 -138 -30 -212 -116 -235 -274
-5 -38 -10 -292 -10 -571 l0 -503 215 0 214 0 3 458 c2 359 6 462 16 475 11
13 72 16 490 20 533 5 547 6 697 77 205 95 327 246 386 475 31 123 31 313 0
430 -65 244 -225 408 -473 484 -125 38 -230 41 -1404 41 l-1133 0 -3 -882 c-3
-1004 3 -931 -90 -1033 -93 -102 -180 -119 -586 -113 -322 6 -372 15 -456 89
-31 28 -47 36 -51 27 -2 -7 -28 -104 -56 -216 -29 -111 -54 -200 -56 -198 -2
2 21 103 52 224 l55 221 -21 47 c-11 27 -24 80 -29 119 -5 38 -10 440 -10 893
l0 822 -215 0 -216 0 4 -932z"/>
<path d="M4574 5302 l-191 -97 19 -42 c60 -137 12 -334 -102 -416 -88 -63 -69
-61 -720 -67 -678 -7 -655 -4 -741 -90 -37 -37 -52 -62 -68 -115 -20 -64 -21
-88 -21 -606 l0 -539 210 0 210 0 0 448 c0 389 2 450 16 470 15 22 15 22 354
22 l338 0 277 -470 278 -470 234 0 c190 0 234 3 230 13 -3 7 -129 226 -280
487 l-275 473 79 32 c133 54 217 121 300 239 111 157 162 399 128 605 -13 85
-59 221 -73 220 -6 0 -97 -44 -202 -97z"/>
<path d="M253 2540 c-64 -13 -116 -44 -166 -100 -80 -89 -77 -56 -77 -825 0
-763 -2 -735 72 -820 22 -25 61 -58 86 -73 l47 -27 395 -7 c217 -3 1854 -6
3636 -6 3002 0 3241 1 3238 17 -2 9 -22 133 -44 276 -22 143 -43 272 -46 287
l-6 28 -164 0 -164 0 2 328 3 327 203 3 202 2 0 -40 0 -40 -160 0 -160 0 0
-105 0 -105 89 0 c85 0 90 1 94 23 l4 22 2 -22 c1 -21 6 -23 62 -23 l60 0 -3
-37 c-3 -38 -3 -38 -50 -41 -27 -2 -48 -7 -48 -11 0 -8 23 -128 36 -189 3 -18
11 -22 39 -22 33 0 35 -2 35 -35 0 -31 -3 -35 -25 -35 -34 0 -34 -3 28 -330
l52 -275 2600 0 2600 0 46 21 c64 30 125 88 157 148 l27 51 0 705 0 705 -28
57 c-32 65 -89 121 -156 152 l-46 21 -6215 1 c-3418 1 -6234 -2 -6257 -6z
m5156 -596 c79 -23 171 -119 171 -179 0 -23 -78 -21 -87 3 -14 37 -47 73 -86
93 -54 28 -148 24 -195 -9 -101 -72 -129 -288 -54 -412 47 -78 158 -113 245
-76 32 13 97 78 97 96 0 6 18 10 40 10 47 0 50 -11 21 -68 -74 -144 -302 -175
-428 -59 -79 73 -109 164 -101 309 5 73 11 100 37 153 64 130 193 183 340 139z
m-4299 -40 l0 -34 -110 0 -110 0 0 -290 0 -290 -40 0 -40 0 0 290 0 290 -105
0 -105 0 0 35 0 35 248 2 c136 2 250 2 255 0 4 -2 7 -19 7 -38z m538 4 l3 -38
-165 0 -166 0 0 -105 0 -105 155 0 155 0 0 -35 0 -34 -152 -3 -153 -3 -3 -112
-3 -113 166 0 165 0 0 -35 0 -35 -205 0 -205 0 0 330 0 330 203 -2 202 -3 3
-37z m299 -88 c47 -71 89 -130 93 -130 4 0 44 56 90 125 l83 125 49 0 50 0
-44 -62 c-107 -152 -178 -256 -178 -263 0 -4 47 -76 105 -162 58 -85 105 -156
105 -159 0 -2 -21 -4 -47 -4 l-48 1 -83 124 c-45 69 -85 125 -90 125 -4 -1
-45 -57 -91 -125 l-85 -125 -43 0 c-24 0 -43 3 -43 6 0 3 48 76 106 161 58 85
103 161 101 168 -3 7 -51 79 -106 160 -56 82 -101 152 -101 157 0 4 20 8 45 8
l45 0 87 -130z m4941 -202 l2 -328 -40 0 -40 0 -2 263 -3 262 -178 -262 -178
-263 -45 0 -44 0 0 325 0 325 45 0 45 0 2 -257 3 -258 84 125 c276 409 269
401 310 398 l36 -3 3 -327z m1300 321 c179 -38 222 -288 67 -384 -45 -28 -56
-30 -162 -33 l-113 -4 0 -114 0 -114 -45 0 -45 0 0 330 0 330 125 0 c68 0 146
-5 173 -11z m710 -31 l3 -38 -160 0 -161 0 0 -105 0 -105 150 0 150 0 0 -34 0
-33 -82 -6 c-46 -4 -113 -7 -150 -7 l-68 0 0 -110 0 -110 160 0 160 0 0 -35 0
-35 -205 0 -205 0 0 330 0 330 203 -2 202 -3 3 -37z m240 -255 l2 -293 115 0
115 0 2 293 3 292 40 0 40 0 3 -292 2 -293 115 0 115 0 2 293 3 292 40 0 40 0
3 -327 2 -328 -365 0 -365 0 0 323 c0 178 3 327 7 331 4 4 23 6 43 4 l35 -3 3
-292z m1095 290 l127 -6 0 -34 0 -33 -160 0 -160 0 0 -105 0 -105 150 0 150 0
0 -35 0 -35 -150 0 -150 0 0 -115 0 -115 160 0 160 0 0 -35 0 -35 -205 0 -205
0 0 323 c0 178 3 327 7 330 8 9 112 9 276 0z m-7703 -143 l0 -140 180 0 180 0
0 140 0 140 40 0 40 0 0 -325 0 -325 -40 0 -39 0 -3 148 -3 147 -177 3 -178 2
0 -150 0 -150 -45 0 -45 0 0 325 0 325 45 0 45 0 0 -140z m702 -119 l3 -258
175 258 174 259 43 0 43 0 0 -325 0 -325 -40 0 -40 0 -2 262 -3 263 -178 -263
-178 -262 -45 0 -44 0 0 325 0 325 45 0 45 0 2 -259z m668 157 c1 -165 44
-228 157 -228 65 0 99 13 141 53 l32 31 0 123 0 123 45 0 45 0 0 -325 0 -325
-45 0 -45 0 0 150 c0 83 -3 150 -7 150 -3 0 -14 -7 -24 -16 -47 -42 -152 -55
-232 -28 -56 19 -121 86 -136 140 -6 22 -11 87 -11 147 l0 107 40 0 40 0 0
-102z m1000 67 l0 -35 -165 0 -165 0 0 -105 0 -105 155 0 155 0 0 -35 0 -34
-152 -3 -153 -3 -3 -112 -3 -113 166 0 165 0 0 -35 0 -35 -205 0 -205 0 0 325
0 325 205 0 205 0 0 -35z m920 -105 c0 -103 3 -140 12 -140 7 0 73 63 148 141
l135 141 47 -4 47 -3 -144 -150 c-79 -82 -144 -154 -145 -160 0 -5 73 -83 162
-172 l163 -163 -55 0 -55 0 -150 150 c-82 83 -153 150 -157 150 -5 0 -8 -67
-8 -150 l0 -150 -40 0 -40 0 0 325 0 325 40 0 40 0 0 -140z m4780 0 l0 -140
180 0 180 0 0 140 0 140 40 0 40 0 0 -325 0 -325 -40 0 -39 0 -3 148 -3 147
-177 3 -178 2 0 -150 0 -150 -45 0 -45 0 0 325 0 325 45 0 45 0 0 -140z m702
-119 l3 -258 175 258 175 259 43 0 42 0 0 -325 0 -325 -40 0 -40 0 -2 262 -3
262 -178 -262 -178 -262 -40 0 -39 0 0 325 0 325 40 0 40 0 2 -259z m1068 -66
l0 -325 -45 0 -45 0 0 125 0 125 -62 0 -63 0 -88 -125 -89 -125 -50 0 -50 0
35 48 c149 205 159 222 122 222 -24 0 -87 62 -106 105 -43 94 -4 205 90 255
31 16 58 19 194 20 l157 0 0 -325z m-5053 163 c-3 -7 -5 -2 -5 12 0 14 2 19 5
13 2 -7 2 -19 0 -25z m10 -55 c-3 -10 -5 -4 -5 12 0 17 2 24 5 18 2 -7 2 -21
0 -30z"/>
<path d="M7980 1735 l0 -135 95 0 c143 0 185 32 185 138 0 94 -56 132 -195
132 l-85 0 0 -135z"/>
<path d="M12090 1863 c-65 -21 -90 -56 -90 -127 0 -36 6 -52 28 -77 32 -35 79
-48 185 -49 l67 0 0 130 0 130 -87 -1 c-49 0 -95 -3 -103 -6z"/>
<path d="M7150 1475 l0 -115 115 0 116 0 -6 33 c-3 17 -11 68 -18 112 l-12 80
-98 3 -97 3 0 -116z"/>
</g>
</svg>
