<svg xmlns="http://www.w3.org/2000/svg" xmlns:xlink="http://www.w3.org/1999/xlink" width="28" height="40" viewBox="0 0 28 40"><defs><path id="hvcaa" d="M822.34 4511.35c0 2.44-.66 4.84-1.93 6.92l-10.57 17.47a1.14 1.14 0 0 1-1.95.01l-10.85-17.3a13.38 13.38 0 0 1-2.04-7.1c0-7.46 6.13-13.52 13.67-13.52s13.67 6.06 13.67 13.52zm-2.27 0c0-6.22-5.12-11.29-11.4-11.29s-11.4 5.07-11.4 11.29c0 2.1.6 4.14 1.7 5.92l9.87 15.72 9.62-15.87a11.16 11.16 0 0 0 1.61-5.77zm-4.56 0a6.79 6.79 0 0 1-6.84 6.76 6.79 6.79 0 0 1-6.83-6.76 6.8 6.8 0 0 1 6.83-6.76 6.8 6.8 0 0 1 6.84 6.76zm-2.27 0a4.56 4.56 0 1 0-9.14 0c0 2.49 2.05 4.52 4.57 4.52a4.54 4.54 0 0 0 4.57-4.52z"/></defs><g><g transform="translate(-795 -4497)"><use fill="#ff9b50" xlink:href="#hvcaa"/></g></g></svg>