<svg xmlns="http://www.w3.org/2000/svg" xmlns:xlink="http://www.w3.org/1999/xlink" width="39" height="39" viewBox="0 0 39 39"><defs><path id="drb7a" d="M381 4530.69l-1.76 1.74a12.41 12.41 0 0 1-17.42 0l-15.09-14.93a12.1 12.1 0 0 1 0-17.23l1.76-1.73a3.45 3.45 0 0 1 4.83 0l4.83 4.77a3.35 3.35 0 0 1 0 4.78l-2.2 2.17a2.54 2.54 0 0 0 0 3.62l9.53 9.42c1 1 2.65 1 3.66 0l2.2-2.17a3.45 3.45 0 0 1 4.83 0l4.83 4.78a3.36 3.36 0 0 1 0 4.78zm-31.7-29.76l6.44 6.36.8-.8c.45-.43.45-1.15 0-1.59l-4.83-4.76a1.15 1.15 0 0 0-1.61 0zm27.64 30.53l-6.42-6.35a4.9 4.9 0 0 1-6.65-.21l-9.52-9.43a4.77 4.77 0 0 1-.22-6.58l-6.42-6.35a9.82 9.82 0 0 0 .63 13.37l15.09 14.92a10.08 10.08 0 0 0 13.51.63zm2.45-3.96l-4.83-4.78a1.15 1.15 0 0 0-1.61 0l-.81.8 6.44 6.37.8-.8c.45-.43.45-1.15 0-1.59z"/></defs><g><g transform="translate(-343 -4497)"><use fill="#ff9b50" xlink:href="#drb7a"/></g></g></svg>