<svg xmlns="http://www.w3.org/2000/svg" xmlns:xlink="http://www.w3.org/1999/xlink" width="24" height="24" viewBox="0 0 24 24"><defs><path id="y31sa" d="M1513.94 4849.43c0 .49-.21 1-.6 1.25-.42.3-1.03.26-1.52.26h-1.3V4848h1.42c.43 0 .97 0 1.35.23.39.22.65.76.65 1.2zm-2.6-3.44h-.83v-2.59h.62c.45 0 1.16-.05 1.54.18.37.22.57.63.57 1.06 0 .4-.17.83-.48 1.07-.4.32-.96.28-1.43.28zm12.66-6.77v15.56a4.22 4.22 0 0 1-4.22 4.22h-15.56a4.22 4.22 0 0 1-4.22-4.22v-15.56a4.22 4.22 0 0 1 4.22-4.22h15.56a4.22 4.22 0 0 1 4.22 4.22zm-7.19 10.32c0-1.86-1.01-2.63-2.43-2.92v-.04c.96-.28 1.7-1.2 1.7-2.55 0-1.74-1.42-2.73-2.98-2.73h-5.35v11.83h4.9c3 0 4.16-1.86 4.16-3.59z"/></defs><g><g transform="translate(-1500 -4835)"><use fill="#fdf7ee" xlink:href="#y31sa"/></g></g></svg>