<svg xmlns="http://www.w3.org/2000/svg" xmlns:xlink="http://www.w3.org/1999/xlink" width="35" height="39" viewBox="0 0 35 39"><defs><path id="kr0ba" d="M1282.26 4510.4a3.42 3.42 0 1 1-5.7 2.52 3.42 3.42 0 0 1-5.7-2.53 3.4 3.4 0 0 1 3.42-3.38 3.4 3.4 0 0 1 3.42 3.4c.03.68.56 1.11 1.14 1.11.63 0 1.14-.5 1.14-1.13 0-3.1-2.56-5.63-5.7-5.63a5.67 5.67 0 0 0-5.7 5.63c0 1.93.99 3.7 2.64 4.75a5.96 5.96 0 0 0 5.75.28 1.14 1.14 0 0 1 1.5.55c.27.57.02 1.24-.55 1.5a8.22 8.22 0 0 1-7.93-.43 7.84 7.84 0 0 1-3.68-6.65 7.94 7.94 0 0 1 7.97-7.88c4.4 0 7.98 3.53 7.98 7.88zm-6.85-.14c-.06-.56-.55-1-1.13-1-.63 0-1.14.51-1.14 1.13 0 .62.51 1.13 1.14 1.13.57 0 1.04-.41 1.12-.95l.01-.3zm15.96 2.54v20.28a3.4 3.4 0 0 1-3.42 3.38h-27.34a3.4 3.4 0 0 1-3.42-3.38v-20.29c0-.27.11-.56.32-.78l.01-.01 4.23-4.18v-8.7c0-.62.5-1.12 1.14-1.12h22.78c.63 0 1.14.5 1.14 1.13v8.7l4.23 4.17c.21.21.33.5.33.8zm-4.56 1.78l1.8-1.78-1.8-1.79zm-22.78 2.26l6.17 6.1h8.17l6.16-6.1v-16.59h-20.5v16.59zm-4.09-4.04l1.8 1.78v-3.57zm8.17 11.26l-8.64-8.54v17.1zm19.37 10.14l-9.11-9h-8.17l-9.12 9zm1.61-18.68l-8.64 8.54 8.64 8.55z"/></defs><g><g transform="translate(-1257 -4498)"><use fill="#ff9b50" xlink:href="#kr0ba"/></g></g></svg>